<?xml version="1.0" standalone="no"?><!DOCTYPE svg PUBLIC "-//W3C//DTD SVG 1.1//EN" "http://www.w3.org/Graphics/SVG/1.1/DTD/svg11.dtd"><svg t="1564034249994" class="icon" viewBox="0 0 1129 1024" version="1.1" xmlns="http://www.w3.org/2000/svg" p-id="3076" xmlns:xlink="http://www.w3.org/1999/xlink" width="220.5078125" height="200"><defs><style type="text/css"></style></defs><path d="M715.034483 799.77931c-5.296552 0-8.827586-1.765517-12.358621-5.296551-7.062069-7.062069-7.062069-17.655172 0-24.717242l192.441379-183.613793L568.496552 247.172414c-7.062069-7.062069-7.062069-17.655172 0-24.717242 7.062069-7.062069 17.655172-7.062069 24.717241 0l340.744828 349.572414c3.531034 3.531034 5.296552 7.062069 5.296551 12.358621s-1.765517 8.827586-5.296551 12.358621L727.393103 794.482759c-3.531034 3.531034-8.827586 5.296552-12.35862 5.296551z" fill="#999999" p-id="3077"></path><path d="M515.531034 261.296552H275.42069v234.813793l312.496551 312.496552 227.751725-222.455173-300.137932-324.855172z m-90.041379 187.144827c-21.186207 0-40.606897-17.655172-40.606896-40.606896s17.655172-40.606897 40.606896-40.606897c21.186207 0 40.606897 17.655172 40.606897 40.606897s-19.42069 40.606897-40.606897 40.606896z" fill="#999999" p-id="3078"></path></svg>